<?xml version="1.0" encoding="UTF-8" standalone="no" ?>
<!DOCTYPE svg PUBLIC "-//W3C//DTD SVG 1.1//EN" "http://www.w3.org/Graphics/SVG/1.1/DTD/svg11.dtd">
<svg xmlns="http://www.w3.org/2000/svg" xmlns:xlink="http://www.w3.org/1999/xlink" version="1.1" width="1080" height="1080" viewBox="0 0 1080 1080" xml:space="preserve">
<desc>Created with Fabric.js 5.2.4</desc>
<defs>
</defs>
<g transform="matrix(1 0 0 1 540 540)" id="b33f6911-70d9-49eb-bad3-34a644fe8b79"  >
<rect style="stroke: none; stroke-width: 1; stroke-dasharray: none; stroke-linecap: butt; stroke-dashoffset: 0; stroke-linejoin: miter; stroke-miterlimit: 4; fill: rgb(255,255,255); fill-rule: nonzero; opacity: 1; visibility: hidden;" vector-effect="non-scaling-stroke"  x="-540" y="-540" rx="0" ry="0" width="1080" height="1080" />
</g>
<g transform="matrix(1 0 0 1 540 540)" id="fed8b6d6-038f-47a1-a3c7-9bb355ca6741"  >
</g>
<g transform="matrix(0 -1.58 1.72 0 550.13 1034.8)"  >
<g style="" vector-effect="non-scaling-stroke"   >
		<g transform="matrix(1 0 0 1 0 0)"  >
<rect style="stroke: none; stroke-width: 1; stroke-dasharray: none; stroke-linecap: butt; stroke-dashoffset: 0; stroke-linejoin: miter; stroke-miterlimit: 4; fill: rgb(0,0,0); fill-rule: nonzero; opacity: 1;" vector-effect="non-scaling-stroke"  x="-800" y="-400" rx="0" ry="0" width="1600" height="800" />
</g>
		<g transform="matrix(1 0 0 1 0 -145)"  >
<polygon style="stroke: none; stroke-width: 1; stroke-dasharray: none; stroke-linecap: butt; stroke-dashoffset: 0; stroke-linejoin: miter; stroke-miterlimit: 4; fill: rgb(34,0,0); fill-rule: nonzero; opacity: 1;" vector-effect="non-scaling-stroke"  points="800,-95 -800,205 -800,95 800,-205 " />
</g>
		<g transform="matrix(1 0 0 1 0 -45)"  >
<polygon style="stroke: none; stroke-width: 1; stroke-dasharray: none; stroke-linecap: butt; stroke-dashoffset: 0; stroke-linejoin: miter; stroke-miterlimit: 4; fill: rgb(68,0,0); fill-rule: nonzero; opacity: 1;" vector-effect="non-scaling-stroke"  points="800,-95 -800,205 -800,95 800,-205 " />
</g>
		<g transform="matrix(1 0 0 1 0 55)"  >
<polygon style="stroke: none; stroke-width: 1; stroke-dasharray: none; stroke-linecap: butt; stroke-dashoffset: 0; stroke-linejoin: miter; stroke-miterlimit: 4; fill: rgb(102,0,0); fill-rule: nonzero; opacity: 1;" vector-effect="non-scaling-stroke"  points="800,-95 -800,205 -800,95 800,-205 " />
</g>
		<g transform="matrix(1 0 0 1 0 155)"  >
<polygon style="stroke: none; stroke-width: 1; stroke-dasharray: none; stroke-linecap: butt; stroke-dashoffset: 0; stroke-linejoin: miter; stroke-miterlimit: 4; fill: rgb(136,0,0); fill-rule: nonzero; opacity: 1;" vector-effect="non-scaling-stroke"  points="800,-95 -800,205 -800,95 800,-205 " />
</g>
		<g transform="matrix(1 0 0 1 0 225)"  >
<polygon style="stroke: none; stroke-width: 1; stroke-dasharray: none; stroke-linecap: butt; stroke-dashoffset: 0; stroke-linejoin: miter; stroke-miterlimit: 4; fill: rgb(170,0,0); fill-rule: nonzero; opacity: 1;" vector-effect="non-scaling-stroke"  points="800,175 -800,175 -800,125 800,-175 " />
</g>
</g>
</g>
<g transform="matrix(1 0 0 1 777.61 540)" style="" id="364bdb06-d512-4f9a-a6d3-8aa2c7714701"  >
		<text xml:space="preserve" font-family="Raleway" font-size="105" font-style="normal" font-weight="900" style="stroke: none; stroke-width: 1; stroke-dasharray: none; stroke-linecap: butt; stroke-dashoffset: 0; stroke-linejoin: miter; stroke-miterlimit: 4; fill: rgb(255,255,255); fill-rule: nonzero; opacity: 1; white-space: pre;" ><tspan x="-135.98" y="32.98" >Forte</tspan></text>
</g>
</svg>